<?xml version="1.0" standalone="no"?>
<!DOCTYPE svg PUBLIC "-//W3C//DTD SVG 20010904//EN"
 "http://www.w3.org/TR/2001/REC-SVG-20010904/DTD/svg10.dtd">
<svg version="1.0" xmlns="http://www.w3.org/2000/svg"
 width="512.000000pt" height="512.000000pt" viewBox="0 0 512.000000 512.000000"
 preserveAspectRatio="xMidYMid meet">
<metadata>
Created by potrace 1.11, written by Peter Selinger 2001-2013
</metadata>
<g transform="translate(0.000000,512.000000) scale(0.100000,-0.100000)"
fill="#000000" stroke="none">
<path d="M0 2560 l0 -2560 2560 0 2560 0 0 2560 0 2560 -2560 0 -2560 0 0
-2560z m1803 1868 c132 -92 8 -302 -138 -232 -49 23 -75 67 -75 126 0 108 122
169 213 106z m-883 -448 l0 -420 120 0 120 0 0 -85 0 -85 -335 0 -335 0 0 85
0 85 125 0 125 0 0 335 0 335 -120 0 -120 0 0 85 0 85 210 0 210 0 0 -420z
m1878 118 c54 -25 94 -74 115 -141 14 -45 17 -98 17 -310 l0 -257 -90 0 -90 0
0 216 c0 237 -6 277 -51 320 -40 38 -128 45 -177 14 -63 -39 -72 -76 -72 -327
l0 -223 -95 0 -95 0 0 360 0 361 93 -3 92 -3 3 -52 c2 -29 7 -53 12 -53 4 0
18 16 30 34 54 88 194 117 308 64z m-980 -265 l2 -273 105 0 105 0 0 -85 0
-85 -320 0 -320 0 0 85 0 85 120 0 120 0 0 185 0 185 -110 0 -110 0 0 90 0 90
203 -2 202 -3 3 -272z m1514 34 c3 -212 5 -246 21 -270 28 -43 62 -60 123 -60
67 0 99 21 132 83 21 42 22 56 22 267 l0 224 93 -3 92 -3 3 -357 2 -358 -95 0
-95 0 0 50 c0 37 -4 50 -14 50 -8 0 -17 -9 -21 -19 -10 -31 -71 -79 -117 -92
-90 -24 -202 5 -259 68 -63 67 -64 72 -67 381 l-3 282 90 0 90 0 3 -243z m951
107 c40 -80 73 -134 80 -132 7 2 43 63 80 136 l68 132 100 0 101 0 -86 -166
c-47 -91 -86 -175 -86 -187 0 -11 41 -98 90 -194 l91 -173 -107 0 -106 0 -66
140 c-37 79 -72 140 -80 140 -7 0 -42 -61 -79 -140 l-67 -140 -103 0 c-57 0
-103 3 -103 6 0 3 41 84 90 178 50 95 90 177 90 183 0 5 -38 83 -85 173 -47
90 -85 167 -85 172 0 4 44 8 98 8 l97 0 68 -136z m-2473 -1344 l0 -420 115 0
115 0 0 -85 0 -85 -335 0 -335 0 0 85 0 85 125 0 125 0 0 335 0 335 -120 0
-120 0 0 85 0 85 215 0 215 0 0 -420z m1490 220 c0 -211 6 -234 42 -171 38 69
154 110 255 92 105 -20 181 -81 230 -186 26 -56 28 -69 28 -190 0 -127 -1
-132 -33 -197 -72 -148 -213 -209 -369 -163 -38 11 -62 27 -91 60 -22 25 -45
45 -51 45 -7 0 -11 -20 -11 -50 l0 -50 -90 0 -90 0 0 505 0 505 90 0 90 0 0
-200z m-2345 -92 c108 -26 206 -126 229 -234 l7 -31 -85 -22 c-47 -11 -87 -21
-90 -21 -2 0 -7 12 -11 28 -10 41 -53 92 -91 108 -49 20 -128 18 -174 -6 -59
-30 -93 -88 -98 -167 -8 -114 37 -184 135 -213 93 -28 198 24 224 110 l11 37
86 -21 c47 -12 87 -27 90 -34 2 -6 -9 -39 -24 -72 -55 -124 -181 -200 -328
-200 -251 1 -412 186 -377 434 34 239 242 367 496 304z m1495 -248 c4 -214 7
-248 23 -271 23 -34 71 -54 125 -52 57 2 100 29 126 78 19 37 21 60 24 268 l4
227 89 0 89 0 0 -360 0 -360 -90 0 -90 0 0 50 c0 61 -16 66 -51 13 -37 -56
-88 -78 -184 -78 -69 0 -86 4 -126 27 -25 15 -58 45 -73 67 -47 67 -56 130
-56 399 l0 243 93 -3 92 -3 5 -245z m-1408 -930 c76 -23 130 -70 162 -139 20
-43 21 -65 24 -356 2 -286 1 -313 -16 -344 -32 -58 -69 -71 -209 -71 -140 0
-170 8 -186 50 -14 38 -25 38 -61 -1 -36 -38 -64 -49 -124 -49 -95 1 -174 63
-209 165 -13 36 -18 81 -18 165 0 112 1 118 35 185 47 93 94 127 185 133 53 4
70 0 98 -17 19 -12 38 -28 41 -36 9 -25 36 -18 36 10 0 25 1 25 85 25 l85 0 0
-225 c0 -207 1 -225 18 -234 32 -17 61 -2 68 35 3 19 5 125 2 237 -4 227 -11
252 -78 292 -32 18 -55 20 -272 23 l-238 4 0 84 0 84 254 0 c225 0 261 -2 318
-20z m1683 -172 c108 -26 206 -126 229 -234 l7 -31 -85 -22 c-47 -11 -87 -21
-90 -21 -2 0 -7 12 -11 28 -10 41 -53 92 -91 108 -49 20 -128 18 -174 -6 -59
-30 -93 -88 -98 -167 -8 -114 37 -184 135 -213 93 -28 198 24 224 110 l11 37
87 -22 c84 -21 86 -22 83 -50 -6 -49 -49 -120 -102 -168 -137 -124 -395 -113
-525 20 -137 140 -134 403 6 542 95 95 238 128 394 89z m-1163 -241 c3 -212 5
-246 21 -270 28 -43 62 -60 123 -60 67 0 99 21 132 83 21 42 22 56 22 267 l0
224 93 -3 92 -3 3 -357 2 -358 -95 0 -95 0 0 50 c0 37 -4 50 -14 50 -8 0 -17
-9 -21 -19 -3 -11 -21 -33 -40 -50 -90 -79 -259 -63 -343 33 -55 63 -62 109
-62 398 l0 258 89 0 90 0 3 -243z m1770 0 c3 -212 5 -246 21 -270 28 -43 62
-60 123 -60 67 0 99 21 132 83 21 42 22 56 22 267 l0 224 93 -3 92 -3 3 -357
2 -358 -95 0 -95 0 0 50 c0 37 -4 50 -14 50 -8 0 -17 -9 -21 -19 -10 -31 -71
-79 -117 -92 -90 -24 -202 5 -259 68 -63 67 -64 72 -67 381 l-3 282 90 0 90 0
3 -243z"/>
<path d="M3405 2586 c-65 -29 -105 -102 -104 -188 2 -126 74 -203 189 -202
113 0 178 62 187 177 9 102 -31 183 -104 213 -41 18 -129 17 -168 0z"/>
<path d="M638 1145 c-42 -23 -59 -67 -59 -146 0 -87 22 -136 68 -155 34 -15
76 -10 101 9 61 48 60 235 -1 286 -24 20 -79 23 -109 6z"/>
</g>
</svg>
